<svg width="1650" height="1651" viewBox="0 0 1650 1651" fill="none" xmlns="http://www.w3.org/2000/svg">
<path d="M757 459.5C757 622.7 624.7 755 461.5 755C298.3 755 166 622.7 166 459.5C166 296.3 298.3 164 461.5 164C624.7 164 757 296.3 757 459.5Z" fill="#F3F3F3"/>
<path d="M591 824.5C591 987.7 458.7 1120 295.5 1120C132.3 1120 0 987.7 0 824.5C0 661.3 132.3 529 295.5 529C458.7 529 591 661.3 591 824.5Z" fill="#F3F3F3"/>
<path d="M757 1208.5C757 1371.7 624.7 1504 461.5 1504C298.3 1504 166 1371.7 166 1208.5C166 1045.3 298.3 913 461.5 913C624.7 913 757 1045.3 757 1208.5Z" fill="#F3F3F3"/>
<path d="M1120 1355.5C1120 1518.7 987.7 1651 824.5 1651C661.3 1651 529 1518.7 529 1355.5C529 1192.3 661.3 1060 824.5 1060C987.7 1060 1120 1192.3 1120 1355.5Z" fill="#F3F3F3"/>
<path d="M1489 1208.5C1489 1371.7 1356.7 1504 1193.5 1504C1030.3 1504 898 1371.7 898 1208.5C898 1045.3 1030.3 913 1193.5 913C1356.7 913 1489 1045.3 1489 1208.5Z" fill="#F3F3F3"/>
<path d="M1650 825.5C1650 988.7 1517.7 1121 1354.5 1121C1191.3 1121 1059 988.7 1059 825.5C1059 662.3 1191.3 530 1354.5 530C1517.7 530 1650 662.3 1650 825.5Z" fill="#F3F3F3"/>
<path d="M1489 459.5C1489 622.7 1356.7 755 1193.5 755C1030.3 755 898 622.7 898 459.5C898 296.3 1030.3 164 1193.5 164C1356.7 164 1489 296.3 1489 459.5Z" fill="#F3F3F3"/>
<path d="M1120 295.5C1120 458.7 987.7 591 824.5 591C661.3 591 529 458.7 529 295.5C529 132.3 661.3 0 824.5 0C987.7 0 1120 132.3 1120 295.5Z" fill="#F3F3F3"/>
<path d="M1120 825.5C1120 988.7 987.7 1121 824.5 1121C661.3 1121 529 988.7 529 825.5C529 662.3 661.3 530 824.5 530C987.7 530 1120 662.3 1120 825.5Z" fill="#F3F3F3"/>
<path d="M1103.63 541.041V559.205C1079.67 563.46 1061.53 570.988 1049.22 581.788C1031.58 597.825 1010.79 622.372 997.147 655.427L719.576 1221.96H701.107L422.454 648.063C409.476 618.608 391.833 600.607 386.509 594.061C378.19 583.916 367.958 575.979 355.812 570.251C343.666 564.524 327.278 560.842 306.647 559.205V541.041H577.784V559.205C546.505 562.151 531.592 567.388 522.275 574.915C512.957 582.443 508.299 592.098 508.299 603.88C508.299 620.244 515.952 645.773 531.259 680.464L737.045 1070.75L938.248 685.374C953.887 647.409 966.862 621.063 966.863 606.334C966.862 596.843 962.037 587.761 952.388 579.088C942.737 570.415 931.818 564.279 908.858 560.678C907.194 560.351 904.365 559.86 900.373 559.205V541.041H1103.63Z" fill="black"/>
<path d="M1342.35 541.041V559.205C1318.39 563.46 1300.26 570.988 1287.95 581.788C1270.31 597.825 1249.52 622.372 1235.87 655.427L992.27 1221.96H973.802L716.379 648.063C703.401 618.608 685.758 600.607 680.434 594.061C672.115 583.916 661.883 575.979 649.737 570.251C637.592 564.524 626.589 560.842 605.958 559.205V541.041H871.71V559.205C840.43 562.151 825.517 567.388 816.2 574.915C806.883 582.443 802.224 592.098 802.224 603.88C802.224 620.244 809.878 645.773 825.185 680.464L1009.74 1070.75L1176.97 685.374C1192.61 647.409 1205.59 621.063 1205.59 606.334C1205.59 596.843 1200.76 587.761 1191.11 579.088C1181.46 570.415 1165.16 564.279 1142.2 560.678C1140.53 560.351 1137.71 559.86 1133.71 559.205V541.041H1342.35Z" fill="black"/>
</svg>
